<?xml version="1.0" standalone="no"?>
<!DOCTYPE svg PUBLIC "-//W3C//DTD SVG 20010904//EN"
 "http://www.w3.org/TR/2001/REC-SVG-20010904/DTD/svg10.dtd">
<svg version="1.0" xmlns="http://www.w3.org/2000/svg"
 width="1024.000000pt" height="1024.000000pt" viewBox="0 0 1024.000000 1024.000000"
 preserveAspectRatio="xMidYMid meet">
<metadata>
Created by potrace 1.14, written by Peter Selinger 2001-2017
</metadata>
<g transform="translate(0.000000,1024.000000) scale(0.100000,-0.100000)"
fill="#000000" stroke="none">
<path d="M5045 7699 c-127 -12 -227 -62 -323 -162 -108 -113 -159 -262 -148
-429 10 -148 66 -262 178 -363 51 -46 148 -98 206 -110 l32 -7 0 -479 0 -479
-154 0 -154 0 -506 511 -505 511 23 32 c70 93 106 212 106 353 0 120 -13 180
-62 283 -32 67 -57 101 -117 160 -124 123 -264 180 -440 180 -168 0 -310 -59
-428 -177 -278 -280 -230 -750 100 -964 149 -97 376 -122 550 -61 l55 20 349
-352 c192 -193 426 -430 521 -527 l172 -175 3 -147 2 -147 -586 0 -585 0 -13
49 c-7 27 -34 83 -62 124 -116 178 -294 259 -517 237 -404 -41 -603 -561 -337
-882 105 -128 246 -193 415 -192 154 1 264 46 371 153 55 56 121 161 134 214
l7 27 589 0 589 0 0 -137 0 -138 -278 -285 c-152 -157 -385 -397 -518 -534
l-241 -248 -84 28 c-72 24 -101 28 -204 28 -106 0 -129 -3 -200 -27 -239 -84
-389 -283 -411 -545 -14 -172 48 -341 174 -470 74 -76 131 -113 231 -150 89
-33 266 -42 361 -18 196 49 358 196 428 387 24 67 27 87 27 209 -1 152 -14
207 -81 319 l-36 61 308 316 c170 173 399 407 509 520 l200 204 145 1 145 1 0
-471 0 -472 -67 -23 c-154 -54 -264 -172 -324 -346 -28 -82 -26 -262 5 -349
58 -165 186 -292 351 -347 83 -27 263 -25 349 5 396 138 498 676 179 942 -61
51 -125 87 -191 108 l-37 13 2 469 3 469 140 3 140 4 390 -396 c214 -218 445
-453 513 -522 l123 -126 -40 -67 c-98 -168 -110 -402 -30 -573 83 -174 224
-292 409 -339 94 -24 271 -15 361 18 96 36 154 72 223 142 138 140 201 322
177 514 -20 156 -74 264 -186 370 -127 121 -243 166 -425 166 -98 0 -127 -4
-195 -27 l-80 -26 -68 67 c-38 37 -273 275 -523 529 l-454 462 0 141 0 140
590 0 c532 0 590 -2 590 -16 0 -35 69 -151 128 -215 198 -214 544 -224 751
-21 110 109 160 230 161 388 0 119 -20 197 -75 289 -101 168 -258 255 -460
255 -157 0 -261 -43 -365 -149 -65 -66 -120 -161 -135 -228 l-7 -33 -589 0
-589 0 0 142 0 142 298 301 c164 165 400 403 524 530 l226 229 54 -17 c188
-59 406 -34 557 63 113 72 220 222 257 360 22 85 23 244 1 327 -43 163 -168
317 -320 395 -66 33 -184 58 -277 58 -171 0 -317 -57 -431 -170 -122 -120
-182 -270 -181 -455 0 -116 25 -205 86 -314 l36 -63 -127 -136 c-430 -457
-880 -905 -900 -898 -8 4 -75 6 -149 6 l-134 0 0 478 0 479 43 13 c157 47 276
158 340 318 29 71 31 86 31 192 -1 97 -5 126 -26 188 -33 91 -74 156 -141 219
-67 63 -125 96 -212 122 -84 24 -146 29 -240 20z m191 -317 c92 -47 152 -156
141 -254 -19 -157 -185 -255 -348 -206 -82 24 -153 111 -165 201 -15 107 66
240 165 272 60 19 155 14 207 -13z m-1899 -15 c63 -32 115 -82 145 -140 20
-36 23 -57 23 -142 0 -92 -2 -104 -29 -153 -59 -106 -148 -163 -267 -170 -111
-6 -167 15 -245 92 -77 77 -98 133 -92 244 7 131 80 237 192 282 75 30 202 24
273 -13z m3827 13 c64 -24 137 -85 171 -144 47 -80 47 -217 1 -304 -28 -54
-86 -112 -140 -140 -45 -24 -62 -27 -146 -27 -110 0 -155 17 -227 87 -64 63
-88 125 -88 233 0 75 4 97 24 135 41 80 118 149 191 171 51 15 158 10 214 -11z
m-1941 -2010 c141 -44 225 -153 234 -304 7 -107 -17 -174 -93 -255 -75 -82
-132 -106 -249 -106 -75 0 -98 4 -140 25 -111 55 -185 166 -193 294 -5 85 7
133 50 206 80 133 234 188 391 140z m-2295 -114 c64 -33 118 -111 128 -189 23
-168 -168 -317 -323 -252 -57 24 -100 61 -130 112 -63 108 -14 271 100 330 64
33 161 32 225 -1z m4614 -3 c176 -96 168 -337 -14 -427 -121 -61 -272 -4 -325
121 -18 43 -17 145 3 191 26 63 90 119 164 143 40 13 121 0 172 -28z m-4213
-1960 c158 -75 226 -262 152 -418 -34 -73 -111 -146 -178 -169 -66 -23 -170
-21 -237 5 -70 26 -139 92 -173 165 -22 48 -25 66 -21 137 4 96 28 154 88 216
97 100 240 124 369 64z m3801 21 c70 -21 117 -52 168 -109 56 -63 76 -127 70
-224 -8 -131 -77 -227 -197 -272 -83 -31 -206 -24 -280 16 -93 51 -151 141
-159 246 -16 234 184 407 398 343z m-1889 -140 c161 -88 186 -300 48 -418 -84
-72 -189 -83 -295 -31 -87 42 -143 149 -130 245 26 192 213 293 377 204z"/>
</g>
</svg>
